<?xml version="1.0"?>
<svg xmlns="http://www.w3.org/2000/svg" xmlns:xlink="http://www.w3.org/1999/xlink" xmlns:svgjs="http://svgjs.com/svgjs" version="1.1" width="512" height="512" x="0" y="0" viewBox="0 0 512 512" style="enable-background:new 0 0 512 512" xml:space="preserve" class=""><g><path xmlns="http://www.w3.org/2000/svg" d="m416 512h-320c-53.023438 0-96-42.976562-96-96v-320c0-53.023438 42.976562-96 96-96h320c53.023438 0 96 42.976562 96 96v320c0 53.023438-42.976562 96-96 96zm0 0" fill="#ffeddb" data-original="#fff9dd" style="" class=""/><path xmlns="http://www.w3.org/2000/svg" d="m256 128c-70.574219 0-128 57.425781-128 128s57.425781 128 128 128 128-57.425781 128-128-57.425781-128-128-128zm64.878906 100.878906-69.328125 69.328125c-2.078125 2.082031-4.816406 3.121094-7.535156 3.121094-2.734375 0-5.457031-1.039063-7.535156-3.121094l-34.671875-34.671875c-4.160156-4.160156-4.160156-10.910156 0-15.085937s10.910156-4.160157 15.085937 0l27.121094 27.117187 61.792969-61.789062c4.160156-4.160156 10.910156-4.160156 15.085937 0s4.144531 10.925781-.015625 15.101562zm0 0" fill="#e7790f" data-original="#ffd200" style="" class=""/></g></svg>
