<?xml version="1.0"?>
<svg xmlns="http://www.w3.org/2000/svg" xmlns:xlink="http://www.w3.org/1999/xlink" xmlns:svgjs="http://svgjs.com/svgjs" version="1.1" width="512" height="512" x="0" y="0" viewBox="0 0 24 24" style="enable-background:new 0 0 512 512" xml:space="preserve" class=""><g><path xmlns="http://www.w3.org/2000/svg" d="m23.79 9.87-5.36 5.49 1.26 7.77c.111.62-.562 1.074-1.1.78l-6.59-3.65v-20.23c.28 0 .56.13.68.4l3.31 7.05 7.37 1.12c.616.11.843.835.43 1.27z" fill="#fdfdfd" data-original="#eceff1" style="" class=""/><path xmlns="http://www.w3.org/2000/svg" d="m12 .03v20.23l-6.59 3.65c-.529.297-1.212-.153-1.1-.78l1.26-7.77-5.36-5.49c-.413-.435-.187-1.16.43-1.27l7.37-1.12 3.31-7.05c.12-.27.4-.4.68-.4z" fill="#f79639" data-original="#ffc107" style="" class=""/></g></svg>
